<?xml version="1.0" encoding="UTF-8" standalone="no"?>
<svg width="361.244mm" height="21.1667mm"
 viewBox="0 0 1024 60"
 xmlns="http://www.w3.org/2000/svg" xmlns:xlink="http://www.w3.org/1999/xlink"  version="1.2" baseProfile="tiny">
<title>Qt Svg Document</title>
<desc>Generated with Qt</desc>
<defs>
</defs>
<g fill="none" stroke="black" stroke-width="1" fill-rule="evenodd" stroke-linecap="square" stroke-linejoin="bevel" >

<g fill="#ffffff" fill-opacity="1" stroke="none" transform="matrix(1,0,0,1,0,0)"
font-family="Helvetica" font-size="12" font-weight="400" font-style="normal" 
>
<path vector-effect="non-scaling-stroke" fill-rule="evenodd" d="M0,0 L1024,0 L1024,60 L0,60 L0,0"/>
<path vector-effect="non-scaling-stroke" fill-rule="evenodd" d="M0,0 L1024,0 L1024,60 L0,60 L0,0"/>
</g>

<g fill="#22b2c7" fill-opacity="1" stroke="none" transform="matrix(1,0,0,1,8,8)"
font-family="Helvetica" font-size="12" font-weight="400" font-style="normal" 
>
<path vector-effect="non-scaling-stroke" fill-rule="nonzero" d="M0,0 L17,0 L17,17 L0,17 L0,0"/>
</g>

<g fill="#dda4a7" fill-opacity="1" stroke="none" transform="matrix(1,0,0,1,8,8)"
font-family="Helvetica" font-size="12" font-weight="400" font-style="normal" 
>
<path vector-effect="non-scaling-stroke" fill-rule="nonzero" d="M20,0 L37,0 L37,17 L20,17 L20,0"/>
</g>

<g fill="#a2ad66" fill-opacity="1" stroke="none" transform="matrix(1,0,0,1,8,8)"
font-family="Helvetica" font-size="12" font-weight="400" font-style="normal" 
>
<path vector-effect="non-scaling-stroke" fill-rule="nonzero" d="M0,20 L17,20 L17,37 L0,37 L0,20"/>
</g>

<g fill="#000000" fill-opacity="1" stroke="none" transform="matrix(1,0,0,1,8,8)"
font-family="Helvetica" font-size="12" font-weight="400" font-style="normal" 
>
<path vector-effect="non-scaling-stroke" fill-rule="nonzero" d="M20,20 L37,20 L37,37 L20,37 L20,20"/>
</g>
</g>
</svg>
